<svg width="120" height="120" viewBox="0 0 120 120" fill="none" xmlns="http://www.w3.org/2000/svg">
<g clip-path="url(#clip0_7_32)">
<rect width="120" height="120" fill="white"/>
<path d="M22.8596 90.327H65.9958V108.443H22.8596V90.327Z" fill="black"/>
<path d="M112.796 99.8271H85.0519V81.891H112.796V99.8271ZM116.276 76.615H81.5719C79.5159 76.615 77.8519 78.279 77.8519 80.335V102.267C77.8519 104.319 79.5159 105.987 81.5719 105.987H92.1839V115.959H88.5479V119.999H109.304V115.959H105.664V105.987H116.276C118.332 105.987 120 104.319 120 102.267V80.335C120 78.279 118.332 76.615 116.276 76.615Z" fill="black"/>
<path d="M90.7845 96.9666C90.3445 96.9666 89.9005 96.7946 89.5645 96.4586C88.9005 95.7826 88.9085 94.6986 89.5805 94.0346L95.2285 88.4665L98.9165 91.9986L105.869 85.2145C106.549 84.5545 107.633 84.5665 108.293 85.2425C108.953 85.9185 108.941 87.0025 108.265 87.6625L98.9365 96.7666L95.2605 93.2426L91.9885 96.4746C91.6525 96.8026 91.2205 96.9666 90.7845 96.9666Z" fill="black"/>
<path d="M43.4162 84.9623C26.1481 84.9623 18.7081 73.8223 18.4001 73.3463C17.4081 71.8222 17.8441 69.7862 19.3641 68.7942C20.8801 67.8102 22.9121 68.2342 23.9081 69.7462C24.1721 70.1382 29.8881 78.3823 43.4162 78.3823C57.2802 78.3823 64.8842 69.7782 65.2002 69.4142C66.3842 68.0422 68.4602 67.8862 69.8323 69.0622C71.2083 70.2422 71.3763 72.3063 70.2043 73.6863C69.8123 74.1463 60.4242 84.9623 43.4162 84.9623ZM28.6561 47.8782C28.7561 47.7342 29.9361 46.0462 32.2041 44.2902L29.5161 41.6021C28.7641 40.8501 28.7641 39.6301 29.5161 38.8781C30.2681 38.1261 31.4881 38.1261 32.2401 38.8781L35.5521 42.1901C37.2401 41.3541 39.2321 40.6701 41.5361 40.3621V35.4821C41.5361 34.4181 42.4002 33.5581 43.4642 33.5581C44.5282 33.5581 45.3922 34.4181 45.3922 35.4821V40.2141C48.3322 40.3621 50.7962 41.0661 52.7762 41.9421L55.8402 38.8781C56.5922 38.1261 57.8122 38.1261 58.5642 38.8781C59.3162 39.6301 59.3162 40.8501 58.5642 41.6021L56.2442 43.9222C57.4802 44.8022 60.8042 47.4102 60.8042 49.8382C60.8042 51.7542 59.2522 53.3062 57.3362 53.3062C56.0122 53.3062 54.8642 52.5662 54.2802 51.4782C53.8202 50.8822 50.6402 47.1182 44.2482 47.1182C37.7601 47.1182 34.4121 51.7502 34.3801 51.7942C33.7081 52.7782 32.6201 53.3062 31.5161 53.3062C30.8401 53.3062 30.1601 53.1102 29.5601 52.7022C27.9801 51.6182 27.5761 49.4622 28.6561 47.8782ZM73.8523 80.3343C73.8523 76.0783 77.3163 72.6143 81.5723 72.6143H82.6043V63.2902C86.2203 62.1222 88.8523 58.7702 88.8523 54.7662C88.8523 50.7662 86.2203 47.4142 82.6043 46.2462V36.6061C82.6043 29.3941 76.7603 23.5501 69.5483 23.5501H52.3802L47.3162 23.4781V15.3181C51.3362 13.738 53.7762 9.01803 51.5042 4.17401C50.8162 2.70601 49.5802 1.502 48.1042 0.830001C42.2122 -1.85801 36.4761 2.37401 36.4761 7.95003C36.4761 11.322 38.5761 14.198 41.5361 15.3541V23.4781L36.4761 23.5501H19.3081C12.092 23.5501 6.24802 29.3941 6.24802 36.6061V46.2462C2.63201 47.4142 0 50.7662 0 54.7662C0 58.7702 2.63201 62.1222 6.24802 63.2902V81.5463C6.24802 88.7583 12.092 94.6063 19.3081 94.6063H69.5483C71.0643 94.6063 72.4963 94.2983 73.8523 93.8223V80.3343Z" fill="black"/>
<path d="M82.6064 76.6134H81.5744C79.5184 76.6134 77.8504 78.2814 77.8504 80.3334V91.5495C80.7304 89.1534 82.6064 85.5894 82.6064 81.5454V76.6134Z" fill="black"/>
</g>
<defs>
<clipPath id="clip0_7_32">
<rect width="120" height="120" fill="white"/>
</clipPath>
</defs>
</svg>
