<svg width="262" height="79" viewBox="0 0 262 79" fill="none" xmlns="http://www.w3.org/2000/svg">
<g clip-path="url(#clip0_1493_661)">
<path d="M162.344 61.7172C147.152 72.915 125.132 78.8894 106.173 78.8894C79.5898 78.8894 55.658 69.0572 37.5527 52.7044C36.1302 51.4185 37.4047 49.666 39.1117 50.6674C58.6509 62.0359 82.8103 68.8752 107.766 68.8752C124.597 68.8752 143.112 65.3929 160.136 58.1667C162.708 57.0743 164.859 59.8509 162.344 61.7172Z" fill="#FF9900"/>
<path d="M168.659 54.4911C166.725 52.0102 155.823 53.3189 150.929 53.8993C149.439 54.0814 149.211 52.7841 150.554 51.8509C159.237 45.74 173.484 47.5038 175.146 49.5522C176.807 51.612 174.713 65.8937 166.554 72.7102C165.302 73.7571 164.107 73.1995 164.665 71.8112C166.497 67.2365 170.605 56.9832 168.659 54.4911Z" fill="#FF9900"/>
<path d="M151.271 8.70993V2.76965C151.271 1.87065 151.954 1.26752 152.773 1.26752H179.368C180.222 1.26752 180.904 1.88203 180.904 2.76965V7.85644C180.893 8.70993 180.176 9.82515 178.902 11.589L165.121 31.2648C170.242 31.1396 175.647 31.902 180.29 34.5194C181.337 35.1112 181.621 35.976 181.701 36.8295V43.1681C181.701 44.033 180.745 45.0457 179.744 44.5223C171.562 40.2321 160.694 39.7655 151.647 44.5678C150.725 45.0685 149.758 44.0671 149.758 43.2022V37.1823C149.758 36.215 149.769 34.5649 150.736 33.0969L166.702 10.2007H152.808C151.954 10.2007 151.271 9.59756 151.271 8.70993Z" fill="#221F1F"/>
<path d="M54.258 45.7741H46.1669C45.3931 45.7172 44.7786 45.1368 44.7217 44.3971V2.87208C44.7217 2.04135 45.4158 1.38131 46.2807 1.38131H53.8255C54.6108 1.41543 55.2366 2.01858 55.2936 2.76965V8.19784H55.4415C57.4102 2.95173 61.1086 0.505066 66.093 0.505066C71.157 0.505066 74.3206 2.95173 76.5966 8.19784C78.5539 2.95173 83.0035 0.505066 87.7716 0.505066C91.1628 0.505066 94.8726 1.90479 97.1372 5.04562C99.6977 8.53923 99.1742 13.6146 99.1742 18.0642L99.1628 44.2719C99.1628 45.1027 98.4687 45.7741 97.6038 45.7741H89.5241C88.7161 45.7172 88.0675 45.0685 88.0675 44.2719V22.2633C88.0675 20.5108 88.2268 16.141 87.8399 14.4795C87.2368 11.6915 85.4274 10.9062 83.0831 10.9062C81.1258 10.9062 79.0774 12.2149 78.2467 14.3088C77.416 16.4027 77.4956 19.9077 77.4956 22.2633V44.2719C77.4956 45.1027 76.8014 45.7741 75.9366 45.7741H67.8569C67.0375 45.7172 66.4003 45.0685 66.4003 44.2719L66.3889 22.2633C66.3889 17.6317 67.1513 10.8152 61.4045 10.8152C55.5894 10.8152 55.817 17.461 55.817 22.2633V44.2719C55.817 45.1027 55.1229 45.7741 54.258 45.7741Z" fill="#221F1F"/>
<path d="M203.801 0.505066C215.806 0.505066 222.304 10.8152 222.304 23.9248C222.304 36.5905 215.123 46.6389 203.801 46.6389C192.011 46.6389 185.593 36.3288 185.593 23.481C185.593 10.5535 192.091 0.505066 203.801 0.505066ZM203.869 8.98305C197.906 8.98305 197.53 17.1082 197.53 22.1723C197.53 27.2477 197.451 38.0813 203.801 38.0813C210.071 38.0813 210.367 29.3416 210.367 24.0158C210.367 20.5108 210.219 16.323 209.16 13.0001C208.25 10.1097 206.441 8.98305 203.869 8.98305Z" fill="#221F1F"/>
<path d="M237.872 45.7741H229.815C229.007 45.7172 228.358 45.0685 228.358 44.2719L228.347 2.73551C228.415 1.97306 229.086 1.38131 229.906 1.38131H237.405C238.111 1.41543 238.691 1.89341 238.85 2.54206V8.89201H238.998C241.263 3.21347 244.438 0.505066 250.025 0.505066C253.655 0.505066 257.195 1.81375 259.471 5.3984C261.587 8.72131 261.587 14.3088 261.587 18.3259V44.4654C261.496 45.1937 260.825 45.7741 260.028 45.7741H251.914C251.175 45.7172 250.56 45.1709 250.48 44.4654V21.9105C250.48 17.37 251.004 10.7242 245.416 10.7242C243.448 10.7242 241.638 12.0442 240.739 14.0471C239.601 16.5848 239.453 19.1111 239.453 21.9105V44.2719C239.442 45.1027 238.736 45.7741 237.872 45.7741Z" fill="#221F1F"/>
<path d="M130.07 25.939V24.1866C124.221 24.1866 118.042 25.4383 118.042 32.3345C118.042 35.8281 119.851 38.1951 122.958 38.1951C125.234 38.1951 127.271 36.7954 128.557 34.5194C130.15 31.72 130.07 29.0913 130.07 25.939ZM138.23 45.6603C137.695 46.1383 136.921 46.1724 136.318 45.8538C133.632 43.6233 133.154 42.5878 131.675 40.4597C127.237 44.9889 124.096 46.3431 118.338 46.3431C111.532 46.3431 106.229 42.1439 106.229 33.7342C106.229 27.1681 109.791 22.6958 114.855 20.5109C119.248 18.5763 125.382 18.2349 130.07 17.7V16.6531C130.07 14.7299 130.218 12.4539 129.092 10.7925C128.102 9.30172 126.212 8.68721 124.551 8.68721C121.467 8.68721 118.713 10.269 118.042 13.5464C117.905 14.2747 117.37 14.9916 116.642 15.0258L108.79 14.1837C108.13 14.0357 107.402 13.5009 107.584 12.4881C109.393 2.97454 117.985 0.106812 125.678 0.106812C129.615 0.106812 134.759 1.15376 137.865 4.13527C141.803 7.81096 141.427 12.7157 141.427 18.0528V30.6617C141.427 34.4512 142.998 36.1126 144.477 38.161C145.001 38.8893 145.114 39.7656 144.454 40.3118C142.804 41.6888 139.868 44.2492 138.252 45.6831L138.23 45.6603Z" fill="#221F1F"/>
<path d="M23.999 25.939V24.1866C18.1497 24.1866 11.9705 25.4383 11.9705 32.3345C11.9705 35.8281 13.7799 38.1951 16.8866 38.1951C19.1625 38.1951 21.1995 36.7954 22.4854 34.5194C24.0786 31.72 23.999 29.0913 23.999 25.939ZM32.1583 45.6603C31.6235 46.1383 30.8496 46.1724 30.2465 45.8538C27.5609 43.6233 27.0829 42.5878 25.6035 40.4597C21.1654 44.9889 18.0246 46.3431 12.2663 46.3431C5.4612 46.3431 0.158203 42.1439 0.158203 33.7342C0.158203 27.1681 3.72009 22.6958 8.78412 20.5109C13.1767 18.5763 19.3105 18.2349 23.999 17.7V16.6531C23.999 14.7299 24.1469 12.4539 23.0203 10.7925C22.0302 9.30172 20.1412 8.68721 18.4797 8.68721C15.3958 8.68721 12.6419 10.269 11.9705 13.5464C11.8339 14.2747 11.2991 14.9916 10.5708 15.0258L2.71867 14.1837C2.05864 14.0357 1.33032 13.5009 1.5124 12.4881C3.3218 2.97454 11.9136 0.106812 19.6063 0.106812C23.5438 0.106812 28.6875 1.15376 31.7941 4.13527C35.7316 7.81096 35.356 12.7157 35.356 18.0528V30.6617C35.356 34.4512 36.9265 36.1126 38.4058 38.161C38.9293 38.8893 39.0431 39.7656 38.3831 40.3118C36.733 41.6888 33.797 44.2492 32.1811 45.6831L32.1583 45.6603Z" fill="#221F1F"/>
</g>
<defs>
<clipPath id="clip0_1493_661">
<rect width="261.742" height="79" fill="white"/>
</clipPath>
</defs>
</svg>
