<svg width="167" height="126" viewBox="0 0 167 126" fill="none" xmlns="http://www.w3.org/2000/svg">
<path d="M112.019 90.9164H114.57V94.2648H117.229V90.9164H119.773V99.7801H117.229V96.1653H114.57V99.7801H112.019V90.9164Z" fill="black"/>
<path d="M127.344 90.8905H130.21L133.676 99.7777H130.888L128.767 93.9394C128.717 93.8026 128.682 93.6706 128.661 93.5432C128.64 93.4159 128.619 93.2933 128.598 93.1707H128.555C128.539 93.2933 128.518 93.4183 128.494 93.5456C128.471 93.6729 128.433 93.805 128.386 93.9394L126.295 99.7777H124L127.344 90.8905ZM126.866 96.3752H130.513L131.027 98.1837H126.361L126.863 96.3752H126.866Z" fill="black"/>
<path d="M137.913 90.9165H141.468C142.583 90.9165 143.458 91.1688 144.097 91.671C144.735 92.1733 145.054 92.9184 145.054 93.904C145.054 94.8897 144.733 95.6607 144.087 96.1818C143.442 96.703 142.566 96.96 141.461 96.96H140.461V99.7778H137.91V90.9141L137.913 90.9165ZM141.344 95.1585C141.754 95.1585 142.052 95.0594 142.233 94.8637C142.414 94.668 142.508 94.3568 142.512 93.9347C142.512 93.5197 142.421 93.2202 142.238 93.0316C142.055 92.8429 141.757 92.7486 141.344 92.7486H140.466V95.1585H141.344ZM140.567 95.6937H143.336L145.427 99.7778H142.566L140.567 95.6937Z" fill="black"/>
<path d="M149.936 90.9165H153.238C154.477 90.9165 155.521 91.2702 156.371 91.9776C157.22 92.685 157.643 93.7154 157.643 95.0665V95.6206C157.643 96.9718 157.218 98.0022 156.371 98.7119C155.524 99.4217 154.479 99.7778 153.238 99.7778H149.936V90.9141V90.9165ZM153.184 97.9598C153.712 97.9598 154.153 97.7829 154.503 97.4269C154.852 97.0708 155.026 96.4955 155.026 95.6961V95.0028C155.026 94.2035 154.85 93.6281 154.503 93.2768C154.153 92.9255 153.714 92.751 153.184 92.751H152.468V97.9621H153.184V97.9598Z" fill="black"/>
<path d="M111.232 103.892H113.753L114.849 109.262C114.877 109.403 114.896 109.516 114.908 109.596C114.917 109.677 114.929 109.79 114.941 109.931H114.99C115.002 109.79 115.011 109.677 115.02 109.596C115.027 109.516 115.044 109.403 115.07 109.262L116.299 103.892H119.249L120.456 109.243C120.489 109.384 120.507 109.5 120.514 109.587C120.522 109.674 120.531 109.79 120.543 109.931H120.592C120.604 109.79 120.615 109.674 120.627 109.587C120.639 109.5 120.655 109.384 120.676 109.243L121.742 103.892H123.845L121.941 112.756H118.937L117.647 107.394C117.614 107.253 117.593 107.13 117.581 107.026C117.569 106.922 117.56 106.8 117.55 106.658H117.501C117.492 106.8 117.485 106.922 117.473 107.026C117.461 107.13 117.442 107.253 117.409 107.394L116.126 112.756H113.23L111.237 103.892H111.232Z" fill="black"/>
<path d="M130.634 103.869H133.5L136.966 112.756H134.178L132.057 106.918C132.007 106.781 131.972 106.649 131.951 106.522C131.93 106.394 131.909 106.272 131.888 106.149H131.845C131.829 106.272 131.808 106.397 131.784 106.524C131.761 106.651 131.723 106.783 131.676 106.918L129.585 112.756H127.29L130.634 103.869ZM130.156 109.353H133.803L134.317 111.162H129.651L130.153 109.353H130.156Z" fill="black"/>
<path d="M141.203 103.892H144.758C145.873 103.892 146.748 104.145 147.387 104.647C148.025 105.149 148.344 105.894 148.344 106.88C148.344 107.866 148.023 108.637 147.377 109.158C146.732 109.679 145.856 109.936 144.751 109.936H143.751V112.754H141.2V103.89L141.203 103.892ZM144.634 108.134C145.044 108.134 145.343 108.035 145.523 107.84C145.704 107.644 145.798 107.333 145.803 106.911C145.803 106.496 145.711 106.196 145.528 106.008C145.345 105.819 145.047 105.725 144.634 105.725H143.756V108.134H144.634ZM143.857 108.672H146.626L148.717 112.756H145.856L143.857 108.672Z" fill="black"/>
<path d="M153.226 103.892H159.569V105.767H155.753V107.288H159.025V109.12H155.753V110.891H159.637V112.754H153.228V103.89L153.226 103.892Z" fill="black"/>
<path d="M106.593 84.6537H59.0635V64.816H63.5226V80.1735H102.134V64.816H106.593V84.6537Z" fill="#FF33A8"/>
<path d="M157.793 84.6537H153.334V69.2961H114.72V84.6537H110.261V64.816H157.793V84.6537Z" fill="#FF33A8"/>
<path d="M106.593 25.8764H59.0635V9.06396H63.5226V21.3962H102.134V9.06396H106.593V25.8764Z" fill="#FF33A8"/>
<path d="M56.0993 113.919H51.6402V105.345H13.9464V113.919H9.4873V100.865H56.0993V113.919Z" fill="#FF33A8"/>
<path d="M55.3953 33.5398H7.86328V9.50964H55.3953V13.9898H12.3224V29.0596H55.3953V33.5398Z" fill="#FF33A8"/>
<path d="M106.593 104.02H59.0635V89.6408H106.593V94.121H63.5226V99.5396H106.593V104.02Z" fill="#FF33A8"/>
<path d="M106.593 113.919H59.0635V109.438H102.134V104.02H59.0635V99.5396H106.593V113.919Z" fill="#FF33A8"/>
<path d="M114.72 9.28796H110.261V31.3445H114.72V9.28796Z" fill="#FF33A8"/>
<path d="M157.122 31.3445H128.626V26.8643H152.663V13.7681H128.626V9.28796H157.122V31.3445Z" fill="#FF33A8"/>
<path d="M55.3952 60.5292H8.7832V38.4727H55.3952V42.9528H13.2423V56.049H55.3952V60.5292Z" fill="#FF33A8"/>
<path d="M105.654 52.1843H59.0605V38.0011H105.654V52.1843ZM63.522 47.7042H101.197V42.4813H63.522V47.7042Z" fill="#FF33A8"/>
<path d="M13.9464 91.862H9.4873V113.919H13.9464V91.862Z" fill="#FF33A8"/>
<path d="M157.122 18.0762H110.261V22.5563H157.122V18.0762Z" fill="#FF33A8"/>
<path d="M55.3952 47.2609H16.9316V51.741H55.3952V47.2609Z" fill="#FF33A8"/>
<path d="M63.5226 38.0011H59.0635V60.0576H63.5226V38.0011Z" fill="#FF33A8"/>
<path d="M56.0994 79.3364H8.56738V65.1532H56.0994V79.3364ZM13.0265 74.8563H51.6403V69.6334H13.0265V74.8563Z" fill="#FF33A8"/>
<path d="M13.0265 65.1532H8.56738V87.2097H13.0265V65.1532Z" fill="#FF33A8"/>
<path d="M83.8019 47.7042H79.3428V60.0576H83.8019V47.7042Z" fill="#FF33A8"/>
<path d="M36.2931 89.6455H31.834V101.999H36.2931V89.6455Z" fill="#FF33A8"/>
<path d="M84.1193 16.0129H79.6602V33.5398H84.1193V16.0129Z" fill="#FF33A8"/>
<path d="M151.877 61.3309H116.178V41.7125H151.877V61.3309ZM120.637 56.8507H147.417V46.1927H120.637V56.8507Z" fill="black"/>
<path d="M136.255 36.7301H131.796V46.195H136.255V36.7301Z" fill="black"/>
<path d="M136.928 48.7063H131.122V53.1865H136.928V48.7063Z" fill="black"/>
<path d="M118.13 48.7063H110.93V53.1865H118.13V48.7063Z" fill="black"/>
<path d="M157.121 48.7063H149.921V53.1865H157.121V48.7063Z" fill="black"/>
<path d="M167 124.518H0.322266V0.997314H167V124.52V124.518ZM4.7814 120.037H162.541V5.47747H4.7814V120.04V120.037Z" fill="#FF33A8"/>
</svg>
