<svg width="120" height="120" viewBox="0 0 120 120" fill="none" xmlns="http://www.w3.org/2000/svg">
<rect width="120" height="120" fill="white"/>
<path fill-rule="evenodd" clip-rule="evenodd" d="M114.929 55.4649C114.929 60.4609 111.642 64.646 107.13 66.1027V83.5161C107.13 92.52 99.8307 99.8192 90.8268 99.8192H53.3071V119.118H30.8503V99.8192H28.1063C19.1023 99.8192 11.8031 92.52 11.8031 83.5161V66.1027C7.29128 64.646 4.00388 60.4609 4.00388 55.4649C4.00388 50.4688 7.29128 46.2838 11.8031 44.8271V27.4137C11.8031 18.4097 19.1023 11.1105 28.1063 11.1105H30.8622C30.9291 4.96483 35.9173 0.000259399 42.0787 0.000259399C48.2401 0.000259399 53.2283 4.96483 53.2953 11.1105H65.6378C65.7047 4.96483 70.6929 0.000259399 76.8543 0.000259399C83.0157 0.000259399 88.0039 4.96483 88.0709 11.1105H90.8268C99.8307 11.1105 107.13 18.4097 107.13 27.4137V44.8271C111.642 46.2838 114.929 50.4688 114.929 55.4649ZM29.0629 40.6932V71.9964C31.1417 72.2326 33.5944 72.3743 36.5275 72.3743C42.7126 72.3743 47.622 70.768 50.5984 67.7917C53.5708 64.8665 55.1771 60.6184 55.1771 55.4255C55.1771 50.2759 53.5236 46.5948 50.689 43.9964C47.9055 41.3979 43.7047 40.0318 37.7992 40.0318C34.5433 40.0318 31.5669 40.3153 29.0629 40.6932ZM33.1732 68.835V43.7129C34.2559 43.4806 35.8661 43.2877 37.9921 43.2877C46.6771 43.2877 50.9291 48.0594 50.8779 55.5672C50.8779 64.1617 46.1102 69.0712 37.3307 69.0712C35.7204 69.0712 34.2126 69.0239 33.1732 68.835ZM60.5275 40.2641V72.0909H64.6378V40.2641H60.5275ZM78.5748 72.0909H82.7283V58.5397L93.4016 40.2641H88.7244L84.1457 49.0475C82.9173 51.457 81.8307 53.5318 80.937 55.6105H80.8386C79.8465 53.394 78.9055 51.457 77.6732 49.0475L73.1929 40.2641H68.5157L78.5748 58.5869V72.0909Z" fill="black"/>
</svg>
