<svg width="120" height="120" viewBox="0 0 120 120" fill="none" xmlns="http://www.w3.org/2000/svg">
<g clip-path="url(#clip0_14_22)">
<rect width="120" height="120" fill="white"/>
<path d="M85.1875 46.4375C91.6078 46.4375 96.8125 41.2328 96.8125 34.8125C96.8125 28.3922 91.6078 23.1875 85.1875 23.1875C78.7672 23.1875 73.5625 28.3922 73.5625 34.8125C73.5625 41.2328 78.7672 46.4375 85.1875 46.4375Z" fill="#A83229"/>
<path d="M77.4375 121.062H11.5625L44.5 88.125L77.4375 121.062Z" fill="#4A9BF6"/>
<path d="M120.062 11.5625V108.438C120.062 111.521 118.838 114.478 116.658 116.658C114.478 118.838 111.521 120.062 108.438 120.062H100.688L56.125 75.5L70.8694 60.7556C75.3316 66.5754 80.1116 72.1445 85.1875 77.4375C85.1875 77.4375 112.312 49.7894 112.312 34.8125C112.315 30.4756 111.271 26.2021 109.271 22.3544L120.062 11.5625Z" fill="#D3D9F2"/>
<path d="M120.063 11.5625L109.271 22.3544C106.701 17.363 102.637 13.2988 97.6456 10.7294L108.438 -0.0625C111.521 -0.0625 114.478 1.16227 116.658 3.34238C118.838 5.52249 120.063 8.47936 120.063 11.5625Z" fill="#FFDF64"/>
<path d="M100.688 120.062H77.4375L44.5 87.125L56.125 75.5L100.688 120.062Z" fill="#F7F7FF"/>
<path d="M70.8694 60.7556L56.125 75.5L44.5 87.125L11.5625 120.063C8.47936 120.063 5.52249 118.838 3.34238 116.658C1.16227 114.478 -0.0625 111.521 -0.0625 108.438L61.7244 46.6506C64.3637 51.6052 67.4232 56.3242 70.8694 60.7556Z" fill="#FFDF64"/>
<path d="M108.438 -0.0625L97.6456 10.7294C93.5123 8.58674 88.8969 7.54475 84.244 7.7038C79.5911 7.86285 75.0576 9.21758 71.0802 11.6375C67.1029 14.0573 63.8159 17.4608 61.5358 21.5199C59.2558 25.579 58.0596 30.1569 58.0625 34.8125C58.3636 38.9863 59.6162 43.0358 61.7244 46.6506L-0.0625 108.438V11.5625C-0.0625 8.47936 1.16227 5.52249 3.34238 3.34238C5.52249 1.16227 8.47936 -0.0625 11.5625 -0.0625H108.438Z" fill="#28BE77"/>
<path d="M109.271 22.3544C111.271 26.2021 112.315 30.4756 112.312 34.8125C112.312 49.7894 85.1875 77.4375 85.1875 77.4375C80.1116 72.1445 75.3316 66.5754 70.8694 60.7556C67.4232 56.3242 64.3637 51.6052 61.7244 46.6506C59.6162 43.0358 58.3636 38.9863 58.0625 34.8125C58.0676 28.7377 60.1117 22.8404 63.8673 18.0656C67.623 13.2908 72.8728 9.91489 78.7754 8.47887C84.6781 7.04284 90.892 7.62981 96.4213 10.1457C101.951 12.6616 106.475 16.9608 109.271 22.3544ZM96.8125 34.8125C96.8125 32.5133 96.1307 30.2657 94.8533 28.354C93.576 26.4423 91.7604 24.9523 89.6362 24.0724C87.512 23.1925 85.1746 22.9623 82.9196 23.4109C80.6645 23.8594 78.5932 24.9666 76.9674 26.5924C75.3416 28.2182 74.2344 30.2896 73.7859 32.5446C73.3373 34.7996 73.5675 37.137 74.4474 39.2612C75.3273 41.3854 76.8173 43.201 78.729 44.4783C80.6407 45.7557 82.8883 46.4375 85.1875 46.4375C88.2706 46.4375 91.2275 45.2127 93.4076 43.0326C95.5877 40.8525 96.8125 37.8957 96.8125 34.8125Z" fill="#D73D3F"/>
<path d="M23.1875 40.625C20.2385 40.6252 17.3376 39.8775 14.7561 38.4518C12.1746 37.026 9.99682 34.9689 8.42651 32.4727C6.85619 29.9765 5.9446 27.1229 5.77698 24.1786C5.60937 21.2343 6.1912 18.2957 7.46808 15.6374C8.74496 12.9791 10.6752 10.6881 13.0782 8.97863C15.4812 7.26914 18.2785 6.19702 21.2085 5.86253C24.1385 5.52805 27.1055 5.94212 29.8319 7.06603C32.5584 8.18995 34.9553 9.98698 36.7984 12.2891L30.7437 17.1328C29.4199 15.4819 27.592 14.3098 25.5392 13.7957C23.4864 13.2817 21.3218 13.4539 19.3762 14.2861C17.4305 15.1183 15.8109 16.5647 14.7648 18.4042C13.7187 20.2437 13.3038 22.3752 13.5833 24.4728C13.8628 26.5704 14.8215 28.5188 16.3128 30.0201C17.8042 31.5215 19.7461 32.4932 21.8417 32.7869C23.9374 33.0805 26.0716 32.6798 27.9181 31.6461C29.7646 30.6124 31.2218 29.0025 32.0671 27.0625H23.1875V19.3125H36.75C37.7777 19.3125 38.7633 19.7208 39.49 20.4475C40.2167 21.1742 40.625 22.1598 40.625 23.1875C40.6194 27.8105 38.7804 32.2425 35.5114 35.5115C32.2425 38.7804 27.8105 40.6194 23.1875 40.625Z" fill="#F7F7FF"/>
</g>
<defs>
<clipPath id="clip0_14_22">
<rect width="120" height="120" fill="white"/>
</clipPath>
</defs>
</svg>
