<svg width="120" height="120" viewBox="0 0 120 120" fill="none" xmlns="http://www.w3.org/2000/svg">
<rect width="120" height="120" fill="white"/>
<path fill-rule="evenodd" clip-rule="evenodd" d="M107.753 0C113.411 0 118 4.58854 118 10.2471V70.6235C118 76.282 113.411 80.8706 107.753 80.8706H78.5465V108.322H88.5652V119.45H31.4348V108.322H41.4535V80.8706H12.2471C6.58854 80.8706 2 76.282 2 70.6235V10.2471C2 4.58854 6.58854 0 12.2471 0H107.753ZM17.9617 12.0264V66.3996H102.034V12.0264H17.9617Z" fill="black"/>
<path d="M31.4349 60.6689C29.884 60.6689 28.3331 60.0718 27.1589 58.8816C24.8265 56.5172 24.8466 52.7101 27.211 50.3817L47.0279 30.8293L59.96 43.2324L84.3654 19.4121C86.7458 17.0957 90.5489 17.1438 92.8652 19.5122C95.1856 21.8887 95.1375 25.6958 92.7651 28.0161L60.0401 59.9596L47.1441 47.6005L35.6587 58.9336C34.4885 60.0918 32.9617 60.6689 31.4349 60.6689Z" fill="black"/>
</svg>
