<svg width="120" height="120" viewBox="0 0 120 120" fill="none" xmlns="http://www.w3.org/2000/svg">
<g clip-path="url(#clip0_7_2)">
<rect width="120" height="120" fill="white"/>
<path d="M50.8672 8.90656C50.8674 2.66331 57.2938 -2.08123 63.8975 0.929016C65.551 1.68159 66.9332 3.03061 67.707 4.67706C70.251 10.1043 67.5161 15.3941 63.0146 17.1644V26.305L68.6855 26.386H87.9209C96.0016 26.386 102.553 32.9372 102.553 41.0179V51.8157C106.602 53.123 109.553 56.879 109.553 61.3626C109.553 65.8464 106.602 69.6031 102.553 70.9105V91.3685C102.553 99.4492 96.0017 106 87.9209 106H82V120H39V106H31.6309C23.5503 106 17.0001 99.4491 17 91.3685V70.9105C12.9472 69.6031 10 65.8464 10 61.3626C10.0002 56.879 12.9474 53.123 17 51.8157V41.0179C17.0001 32.9373 23.5503 26.3862 31.6309 26.386H50.8672L56.5381 26.305V17.2064C53.2203 15.9096 50.8672 12.6837 50.8672 8.90656Z" fill="black"/>
<path d="M73.0114 49.2105L75.612 46.6099C76.4529 45.769 76.4529 44.4016 75.612 43.5571C74.7675 42.7162 73.4001 42.7162 72.5591 43.5571L69.1212 46.9951C66.9058 46.0128 64.1427 45.2213 60.8496 45.0552V39.7552C60.8496 38.5645 59.8815 37.5963 58.6907 37.5963C57.4964 37.5963 56.5318 38.5645 56.5318 39.7552V45.2213C53.9489 45.5711 51.7159 46.3343 49.8255 47.2707L46.1155 43.5571C45.2746 42.7162 43.9071 42.7162 43.0627 43.5571C42.2217 44.4016 42.2217 45.769 43.0627 46.6099L46.0731 49.6239C43.5326 51.592 42.2111 53.4823 42.0981 53.6448C40.8861 55.4186 41.3419 57.8354 43.1121 59.0473C43.7835 59.5067 44.5467 59.7258 45.3028 59.7258C46.543 59.7258 47.762 59.1357 48.5146 58.0333C48.55 57.9803 52.3024 52.7933 59.5705 52.7933C66.7291 52.7933 70.2907 57.0121 70.8066 57.6764C71.4603 58.8954 72.7499 59.7258 74.234 59.7258C76.3787 59.7258 78.1171 57.9873 78.1171 55.8391C78.1171 53.1184 74.393 50.1998 73.0114 49.2105Z" fill="white"/>
<path d="M88.6572 82.5586C88.219 83.0744 77.7002 95.1939 58.6448 95.1939C39.2962 95.1939 30.961 82.7105 30.6147 82.1805C29.5052 80.4739 29.9893 78.1913 31.6959 77.0819C33.3955 75.9759 35.6674 76.4529 36.7839 78.1454C37.0807 78.5835 43.4867 87.8197 58.6448 87.8197C74.1775 87.8197 82.6964 78.1843 83.0497 77.7709C84.3783 76.2374 86.7032 76.0607 88.2438 77.3787C89.7843 78.7001 89.9716 81.011 88.6572 82.5586Z" fill="white"/>
</g>
<defs>
<clipPath id="clip0_7_2">
<rect width="120" height="120" fill="white"/>
</clipPath>
</defs>
</svg>
