<svg width="386" height="57" viewBox="0 0 386 57" fill="none" xmlns="http://www.w3.org/2000/svg">
<g clip-path="url(#clip0_1492_649)">
<mask id="mask0_1492_649" style="mask-type:luminance" maskUnits="userSpaceOnUse" x="0" y="0" width="57" height="57">
<path d="M57 0H0V57H57V0Z" fill="white"/>
</mask>
<g mask="url(#mask0_1492_649)">
<path d="M28.4807 56.9614C44.2102 56.9614 56.9614 44.2102 56.9614 28.4807C56.9614 12.7512 44.2102 0 28.4807 0C12.7512 0 0 12.7512 0 28.4807C0 44.2102 12.7512 56.9614 28.4807 56.9614Z" fill="#FF5226"/>
<path d="M33.1104 46.4645V15.9384H29.5213C26.9357 15.9384 24.9675 16.4787 23.6554 17.5978C22.3433 18.6398 21.6486 20.0677 21.6486 21.8043C21.6486 23.1165 21.8802 24.2742 22.3433 25.2004C22.8064 26.1266 23.501 27.0142 24.3886 27.7861C25.2762 28.5579 26.434 29.4455 27.7847 30.3717L31.1808 32.6486L21.2241 46.4259H13.7373L23.2309 33.4976L27.7075 37.4726L24.1957 35.2343C22.4204 34.0765 20.7224 32.803 19.1401 31.4137C17.7123 30.1787 16.6703 28.7894 15.8984 27.323C15.1652 25.8179 14.7793 24.0813 14.7793 22.1131C14.7793 18.6784 16.0142 15.8998 18.4841 13.7773C20.9926 11.6161 24.6588 10.5356 29.4441 10.5356H40.0569V46.3873C40.0955 46.4645 33.1104 46.4645 33.1104 46.4645Z" fill="white"/>
</g>
<path d="M90.342 57C74.6352 57 61.8613 44.2647 61.8613 28.5579C61.8613 12.851 74.6352 0 90.342 0C106.087 0 118.861 12.8125 118.861 28.5579C118.861 44.2647 106.087 57 90.342 57Z" fill="#FF5226"/>
<path d="M85.9431 3.85916L54.1436 53.4496H68.7312L87.1009 24.8531L86.6378 24.6601L81.5437 45.1137L92.3108 47.0047L103.425 33.1117L102.808 32.803L99.0643 48.6256L122.567 44.1489L117.781 36.2376L109.33 38.1672L110.333 39.325L114.231 22.8077L105.046 16.6716L93.0054 31.7996L93.6229 32.1083L98.5626 12.3108C98.5626 12.2722 85.9431 3.85916 85.9431 3.85916Z" fill="#FFDD00"/>
<path d="M85.9431 3.85916L54.1436 53.4496H68.7312L87.1009 24.8531L86.6378 24.6601L81.5437 45.1137L92.3108 47.0047L103.425 33.1117L102.808 32.803L99.0643 48.6256L108.519 46.8118L114.231 22.8077L105.046 16.6716L93.0054 31.7996L93.6229 32.1083L98.5626 12.3108C98.5626 12.2722 85.9431 3.85916 85.9431 3.85916Z" fill="#FFDD00"/>
<path d="M129.783 46.4645L147.497 10.6127H161.004L163.744 32.4557L177.405 10.6127H190.797V46.4645H177.714V27.2072L165.558 46.4645H152.475L149.967 27.0142L140.357 46.4259H129.783V46.4645ZM231.009 39.3636C231.009 40.5599 231.048 41.7563 231.087 42.9526C231.125 44.1104 231.202 45.2681 231.318 46.4259H219.162C218.892 45.847 218.621 45.2681 218.467 44.6506C218.235 43.8402 218.081 43.0298 218.004 42.1808C216.769 43.6473 215.148 44.8822 213.257 45.8856C211.366 46.8118 208.703 47.3135 205.23 47.3135C201.718 47.3135 198.901 46.5031 196.778 44.8436C194.695 43.1842 193.653 41.023 193.653 38.283C193.653 35.736 194.386 33.7678 195.814 32.4171C197.319 31.0278 199.596 30.0244 202.722 29.4841C205.848 28.9052 209.861 28.5965 214.762 28.5965H217.811V27.9404C217.811 26.7055 217.271 25.7407 216.229 25.0846C215.187 24.4286 213.18 24.0813 210.286 24.0813C207.43 24.0813 204.767 24.4672 202.297 25.2004C199.866 25.8951 197.898 26.5897 196.354 27.323V19.4116C198.091 18.7942 200.368 18.1767 203.262 17.5207C206.195 16.8646 209.552 16.5173 213.296 16.5173C217.078 16.5173 220.281 16.8646 222.905 17.5592C225.529 18.2153 227.536 19.3731 228.887 21.0325C230.237 22.6534 230.932 24.8531 230.932 27.7089C231.009 27.7475 231.009 39.3636 231.009 39.3636ZM234.984 17.4049H247.141L247.835 22.3832C249.34 20.415 251.116 18.9871 253.161 18.0995C255.245 17.2119 257.638 16.7488 260.339 16.7488C263.388 16.7488 266.128 17.2891 268.559 18.4083C270.913 19.4502 272.92 21.1869 274.309 23.3866C275.737 25.6249 276.432 28.4421 276.432 31.8382C276.432 35.2343 275.737 38.0901 274.309 40.3284C272.959 42.5667 271.029 44.2261 268.559 45.3839C266.089 46.5031 263.272 47.0819 260.107 47.0819C257.831 47.0819 255.592 46.696 253.47 45.847C251.424 44.998 249.688 43.6473 248.183 41.7949V54.0284H234.984V17.4049ZM314.676 31.8382C314.676 28.9438 315.448 26.3582 317.03 24.0813C318.651 21.8043 320.889 20.0291 323.822 18.7556C326.794 17.4435 330.306 16.7488 334.319 16.7488C338.487 16.7488 341.999 17.4821 344.816 18.91C347.672 20.3764 349.679 22.4218 350.798 25.0846C351.956 27.7475 352.11 30.912 351.261 34.5396H328.068C328.531 36.2376 329.573 37.5112 331.193 38.3602C332.853 39.1706 335.246 39.5951 338.487 39.5951C340.726 39.5951 342.81 39.4022 344.701 39.0163C346.514 38.6303 348.29 38.1286 350.026 37.5498V44.5349C348.328 45.3067 346.476 45.9242 344.392 46.4259C342.346 46.889 339.684 47.1205 336.365 47.1205C329.032 47.1205 323.591 45.7698 320.002 43.0684C316.451 40.3284 314.676 36.585 314.676 31.8382ZM352.419 17.4049H385.917V24.9303H375.458V46.3873H362.26V24.9303H352.419V17.4049ZM278.94 17.4049H292.139V30.5647L304.642 17.4049H316.027L304.411 29.4841L318.42 46.3873H302.443L292.139 33.6134V46.3873H278.94V17.4049ZM334.397 23.348C332.583 23.348 331.155 23.8883 330.113 24.9303C329.071 25.9337 328.376 27.2458 328.068 28.8666H339.684C339.645 27.2458 339.221 25.9337 338.41 24.9303C337.561 23.8497 336.249 23.348 334.397 23.348ZM262.925 31.8382C262.925 29.4841 262.269 27.6317 260.995 26.281C259.76 24.8917 257.946 24.1584 255.592 24.1584C253.431 24.1584 251.656 24.8145 250.189 26.1652C248.723 27.4387 248.028 29.3683 248.028 31.8768C248.028 34.3852 248.723 36.3148 250.151 37.7041C251.617 39.0163 253.431 39.7109 255.592 39.7109C258.024 39.7109 259.837 39.0163 261.034 37.5884C262.307 36.1219 262.925 34.2309 262.925 31.8382ZM217.811 33.8836H214.801C211.945 33.8836 209.9 34.1151 208.626 34.5782C207.43 35.0413 206.812 35.9289 206.812 37.2796C206.812 38.3988 207.198 39.2478 207.97 39.7881C208.781 40.2898 209.784 40.5599 210.903 40.5599C212.64 40.5599 214.029 40.2512 215.11 39.6337C216.229 38.9777 217.116 38.2058 217.734 37.3568V33.8836H217.811Z" fill="black"/>
</g>
<defs>
<clipPath id="clip0_1492_649">
<rect width="385.917" height="57" fill="white"/>
</clipPath>
</defs>
</svg>
